<?xml version="1.0" encoding="utf-8"?>
<!-- Generator: Adobe Illustrator 25.3.1, SVG Export Plug-In . SVG Version: 6.00 Build 0)  -->
<svg version="1.1" id="Layer_1" xmlns="http://www.w3.org/2000/svg" xmlns:xlink="http://www.w3.org/1999/xlink" x="0px" y="0px"
	 viewBox="0 0 2551.2 2551.2" style="enable-background:new 0 0 2551.2 2551.2;" xml:space="preserve">
<style type="text/css">
	.st0{fill:#3CB451;}
	.st1{fill:#0C519D;}
</style>
<g>
	<rect width="2551.2" height="2551.2" style="fill:#FFFFFF;" />
	<path class="st0" d="M237.9,1275.6c0-210,54.6-401.9,144.6-549.6c-110.6,135.6-180,331.7-180,549.6c0,218,69.5,414,180.2,549.8
		C292.5,1677.5,237.9,1485.6,237.9,1275.6"/>
	<path class="st0" d="M2348.7,1275.6c0-217.8-69.5-413.8-179.9-549.5c90,147.7,144.4,339.7,144.4,549.5
		c0,210-54.4,401.8-144.6,549.6C2279.3,1689.6,2348.7,1493.6,2348.7,1275.6"/>
	<path class="st0" d="M1275.6,2310.1c-206.1,0-395-49.9-542.3-133.1c136.7,100.8,329,163.7,542.3,163.7
		c213.3,0,405.5-62.9,542.3-163.6C1670.5,2260.3,1481.7,2310.1,1275.6,2310.1"/>
	<path class="st0" d="M1275.6,241c205.9,0,394.7,49.9,541.9,132.8c-136.7-100.5-328.8-163.4-541.9-163.4
		c-213.1,0-405.4,62.9-541.9,163.4C880.9,290.9,1069.7,241,1275.6,241"/>
	<path class="st1" d="M1568.5,1275.6c0-451,259.7-841,637.6-1029.5C1788.5,401.7,1491,803.9,1491,1275.6
		c0,471.7,297.5,873.9,714.9,1029.5C1828.2,2116.6,1568.5,1726.6,1568.5,1275.6"/>
	<path class="st1" d="M982.7,1275.6c0,451-259.7,841-637.4,1029.5c417.6-155.6,715.1-557.6,715.1-1029.5
		c0-471.7-297.5-873.9-715.1-1029.5C723,434.6,982.7,824.8,982.7,1275.6"/>
	<path class="st1" d="M1275.6,982.7c-451,0-841-259.7-1029.5-637.6c155.6,417.6,557.8,715.1,1029.5,715.1
		c471.7,0,873.9-297.5,1029.5-714.9C2116.6,723.1,1726.6,982.7,1275.6,982.7"/>
	<path class="st1" d="M1275.6,1568.5c451,0,841,259.7,1029.5,637.4c-155.6-417.6-557.6-715.1-1029.5-715.1
		c-471.7,0-873.9,297.5-1029.5,715.1C434.6,1828.2,824.8,1568.5,1275.6,1568.5"/>
	<path class="st1" d="M1452.2,603.7c0,97.5-79,176.6-176.6,176.6s-176.6-79-176.6-176.6c0-97.5,79-176.6,176.6-176.6
		S1452.2,506.2,1452.2,603.7"/>
</g>
</svg>
