<?xml version="1.0" encoding="utf-8"?>
<!-- Generator: Adobe Illustrator 25.3.1, SVG Export Plug-In . SVG Version: 6.00 Build 0)  -->
<svg version="1.1" id="Layer_1" xmlns="http://www.w3.org/2000/svg" xmlns:xlink="http://www.w3.org/1999/xlink" x="0px" y="0px"
	 viewBox="0 0 2551.2 2551.2" style="enable-background:new 0 0 2551.2 2551.2;" xml:space="preserve">
<style type="text/css">
	.st0{fill:#0B409E;}
	.st1{fill:#2CA45C;}
</style>
<path class="st0" d="M415.5,1260.2c0-278.9,0-557.8,0-836.7c0-3.5-0.1-7,0.1-10.6c0.3-6.1,4.8-10.8,10.9-11.4
	c1.3-0.1,2.6-0.1,3.8-0.1c3.2,0,6.4,0,9.6,0c555.9,0,1111.7,0,1667.6,0c3.8,0,7.7,0.1,11.5,0c5.8-0.1,12.1,4.7,12.4,12.2
	c0.1,2.2,0.1,4.5,0.1,6.7c0,167,0,333.9,0,500.9c0,2.6,0.2,5.1-0.1,7.7c-0.9,7.5-4.4,13.4-11.1,17c-10.6,5.7-22.2,1.9-28.3-7.9
	c-1.7-2.7-2.7-5.8-2.8-9.1c0-4.5-0.1-9-0.1-13.4c0-58.2,0-116.4,0-174.6c0-94.7,0-189.3,0-284c0-14.6,1.7-12.9-12.6-12.9
	c-535.1,0-1070.1,0-1605.2,0c-3.5,0-7,0.1-10.5,0.2c-1.2,0-2.3,1.3-2.4,2.5c-0.1,1-0.2,1.9-0.2,2.9c0,2.9,0,5.8,0,8.6
	c0,534.1,0,1068.2,0,1602.3c0,3.5,0,7,0.1,10.6c0.1,2.9,1.1,3.8,4.2,3.8c3.2,0.1,6.4,0,9.6,0c97.9,0,195.7,0,293.6,0
	c435.9,0,871.9,0,1307.8,0c13.7,0,14.4,0,14.9-1.3c1.7-4.6,0.8-9.5,0.8-14.2c0.1-141.7,0-283.4,0-425.1c0-14.7,0.1-29.4,0.1-44.1
	c0-2.2,0-4.5,0.1-6.7c0.6-8.5,8.5-18.5,21-18.6c6.7,0,12.4,2.9,16.6,8.3c2.8,3.6,4.5,7.7,4.6,12.4c0,2.2,0,4.5,0,6.7
	c0,168.9,0,337.7,0,506.6c0,2.2,0.1,4.5-0.1,6.7c-0.4,7.1-6.2,11.7-11.8,11.7c-1.3,0-2.6,0-3.8,0c-2.6,0-5.1,0-7.7,0
	c-556.2,0-1112.4,0-1668.5,0c-4.2,0-8.3-0.1-12.5,0c-5.7,0-11.6-5.2-11.5-11.8c0-3.5,0-7,0-10.6c0-222.3,0-444.6,0-666.8
	C415.5,1372.2,415.5,1316.2,415.5,1260.2z"/>
<path class="st0" d="M622.8,1718.9c0-39.3,0-78.6,0-117.9c0-2.9,0.1-5.8,0.1-8.6c0-8.2,7.3-19,19.6-20.2c1.6-0.1,3.2-0.1,4.8-0.1
	c37.4,0,74.8,0,112.2,0c10.7,0,21,1.8,30.9,5.9c27.9,11.6,44.4,32.4,49.8,62.1c2.4,13.2,1.4,26.1-2.6,38.8
	c-4.1,13.1-11.3,24.2-21.6,33.4c-1.9,1.7-3.9,3.3-5.9,4.9c-1.2,1-1.3,2.2-0.2,3.1c1.5,1.2,2.9,2.4,4.4,3.7
	c12.4,10.4,20.5,23.5,24.5,39.1c7.3,28.1-0.8,59.5-21.6,79.5c-11.9,11.4-26,18.3-42.1,21.3c-6.3,1.2-12.7,1.6-19.1,1.6
	c-35.5,0-71,0-106.4,0c-2.2,0-4.5,0.1-6.7-0.1c-7-0.8-12.8-3.9-16.7-10c-1.9-3-3.2-6.2-3.2-9.9c0-2.6-0.1-5.1-0.1-7.7
	C622.8,1798.2,622.8,1758.6,622.8,1718.9z M665.2,1719c0,31.3,0,62.7,0,94c0,2.9,0.1,5.8,0.3,8.6c0.1,0.7,1.1,1.5,1.9,1.7
	c1.2,0.4,2.5,0.3,3.8,0.3c28.1,0,56.3,0,84.4,0c1.9,0,3.8,0,5.7-0.2c12.8-1.2,29.2-8.5,35.3-28.1c2.2-7.1,2.5-14.4,1.3-21.8
	c-2.1-13.8-12.4-28.6-29.8-32.8c-4.4-1.1-8.8-1.6-13.3-1.6c-13.4,0-26.9,0-40.3,0c-2.2,0-4.5,0.1-6.7-0.1
	c-10.8-0.6-19.4-9.3-19.3-20c0-12.4,10.4-20.3,19-20.4c2.6,0,5.1-0.1,7.7-0.1c13.1,0,26.2,0,39.3,0c4.2,0,8.3-0.4,12.3-1.4
	c14.2-3.3,23.8-11.8,29-25.3c3.5-9.2,4-18.8,1.2-28.3c-4-13.9-12.9-23.3-26.7-27.7c-3.4-1.1-6.8-1.8-10.3-1.9
	c-3.2-0.1-6.4-0.2-9.6-0.2c-24.6,0-49.2,0-73.8,0c-2.9,0-5.7,0.1-8.6,0.2c-1.3,0-2.5,1.1-2.6,2.3c-0.1,2.9-0.2,5.7-0.2,8.6
	C665.2,1656.3,665.2,1687.7,665.2,1719z"/>
<path class="st0" d="M1238,1720c-0.7,85.4-70.2,152.7-155.5,151.4c-86.2-1.4-152.6-72.2-150.6-156.3c2-83.8,71.5-150.5,156-149
	C1169.1,1567.5,1238.5,1633.2,1238,1720z M1084.6,1607.8c-59.4-0.4-110.6,47.4-110.2,111.4c0.4,66.1,53.5,110.9,111.1,110.5
	c60.2-0.4,109.8-49.2,109.9-111C1195.5,1658.3,1146.4,1607.2,1084.6,1607.8z"/>
<path class="st1" d="M2253.2,1258.5c-0.3,84.3-68.3,153.1-154.9,152c-87.7-1.1-152.4-72.6-151.2-154.7
	c1.2-84.6,70.8-151.2,154.4-150.6C2182.3,1105.8,2253.4,1170.8,2253.2,1258.5z M2210.6,1257.6c-0.1-7.4-0.6-14.7-2.1-21.9
	c-4.9-23.6-15.9-43.8-33.8-59.9c-28.4-25.5-61.7-33.8-98.9-26.1c-45,9.3-84.3,49.4-86.2,105.3c-0.4,10.9,1,21.7,3.8,32.3
	c6.3,23.3,18.5,42.8,37.5,57.6c26.1,20.4,55.7,27.7,88.3,22.3c22.1-3.6,41.3-13.3,57.3-28.8
	C2199.4,1316.3,2210.4,1289.2,2210.6,1257.6z"/>
<path class="st1" d="M622.8,796.1c0-39,0-78,0-117c0-2.9,0-5.8,0.1-8.6c0-9.5,9.4-19.7,19.8-19.9c2.6-0.1,5.1-0.1,7.7-0.1
	c21.7,0,43.5,0,65.2,0c4.5,0,9,0,13.4,0.3c31.3,1.6,59.3,12.1,83.8,31.6c28.2,22.5,45.2,51.9,51.5,87.2c6.1,33.7,1.6,66.3-14.4,96.8
	c-18.6,35.4-47.6,58.6-85.7,70.6c-14.8,4.7-30,6.5-45.4,6.7c-23.3,0.3-46.7,0.1-70,0c-2.9,0-5.7-0.4-8.6-0.7
	c-8.4-1.1-17.4-10-17.3-20.2c0-2.6,0-5.1,0-7.7C622.8,875.4,622.8,835.8,622.8,796.1z M665.2,796.2c0,31.6,0,63.3,0,94.9
	c0,2.9,0.2,5.7,0.3,8.6c0.1,1.1,0.9,1.8,1.8,2c1.9,0.3,3.8,0.4,5.7,0.4c15,0,30,0,45.1,0c10,0,19.8-1.3,29.4-3.8
	c20.3-5.4,37.7-15.7,51.5-31.6c16.5-19.1,24.3-41.7,25.3-66.8c0.5-10.6-0.9-21.1-3.7-31.3c-8.1-30-26-52.2-53.9-66.2
	c-13.7-6.8-28.3-10.2-43.4-10.6c-18.2-0.6-36.4-0.1-54.6-0.1c-1.9,0-3.2,1.2-3.2,2.9c-0.1,2.9-0.2,5.7-0.2,8.6
	C665.1,734.2,665.2,765.2,665.2,796.2z"/>
<path class="st1" d="M1658.2,1111.3c17.6,0,35.2,0,52.8,0c2.6,0,5.1-0.1,7.7,0.1c10.2,0.8,18.1,9,18.9,19.6
	c0.7,9.2-5.9,18.4-15.1,20.9c-2.1,0.6-4.4,0.8-6.6,1c-2.5,0.2-5.1,0.1-7.7,0.1c-31.7,0-63.3,0-95,0c-4.5,0-9,0-13.4,0.7
	c-14.8,2.3-26.3,9.7-32.6,23.7c-10.8,23.8,1.2,54.3,32.6,59c4.4,0.6,8.9,0.7,13.4,0.7c16,0.1,32,0,48,0c10.6,0,21.1,1.2,31.1,4.7
	c30.3,10.8,48.7,32.2,54.8,63.6c3.4,17.3,1.5,34.4-5.9,50.7c-10.6,23.3-28.7,37.9-53.1,44.9c-8.9,2.6-18.2,3.6-27.5,3.6
	c-22.1,0-44.1,0-66.2,0c-12.5,0-24.9,0-37.4,0c-3.5,0-7-0.3-10.4-1.3c-8.1-2.4-13.9-10.8-14.2-18.6c-0.6-13.3,10.3-22.1,20.5-21.9
	c2.6,0,5.1,0,7.7,0c32.6,0,65.2,0,97.8,0c5.8,0,11.5-0.4,17.1-2c15-4.4,25.1-13.8,29-29.1c2.4-9.2,2-18.4-1.6-27.3
	c-5.4-13.1-15.5-20.8-29-24.2c-5.3-1.3-10.7-1.8-16.2-1.7c-16.6,0.1-33.3-0.1-49.9,0.1c-10,0.1-19.8-1.1-29.3-4.3
	c-27.3-9.2-46.3-27.1-54.2-55c-8.1-28.6-3.2-55.2,15.9-78.4c12-14.6,27.8-23.2,46.1-27.4c6.9-1.6,13.9-2.2,20.9-2.2
	C1624.3,1111.4,1641.2,1111.4,1658.2,1111.3C1658.2,1111.3,1658.2,1111.3,1658.2,1111.3z"/>
<path class="st1" d="M1151.5,797.7c0-39.7,0-79.3,0-119c0-2.6-0.1-5.1,0.1-7.7c0.8-11.5,9.6-20,20.3-20.7c2.2-0.2,4.5-0.2,6.7-0.2
	c45.1,0,90.2,0,135.3,0c3.2,0,6.4,0.1,9.6,0.6c9.2,1.3,16.2,8.9,17.2,18.1c0.9,8.2-3.5,18.2-13.7,21.9c-1.8,0.6-3.7,0.9-5.6,1
	c-3.2,0.2-6.4,0.2-9.6,0.2c-34.9,0-69.7,0-104.6,0c-2.9,0-5.8,0-8.6,0.1c-2.7,0.1-3.9,1.4-4.1,4.2c-0.1,1.6-0.1,3.2-0.1,4.8
	c0,22.4,0,44.8,0,67.2c0,1,0,1.9,0,2.9c0.1,4.2,0.9,4.9,5.1,5c2.6,0.1,5.1,0,7.7,0c30.7,0,61.4,0,92.1,0c2.6,0,5.1-0.1,7.7,0.1
	c10.3,0.7,18.1,7.7,19.8,17.8c1.7,10.3-5.3,22.3-18.4,23.7c-2.8,0.3-5.7,0.1-8.6,0.1c-31.7,0-63.3,0-95,0c-2.9,0-5.7,0.2-8.6,0.5
	c-0.5,0-1.2,0.8-1.3,1.2c-0.3,2.2-0.5,4.4-0.5,6.7c0,17.6,0,35.2,0,52.8c0,5.8,0,11.5,0,17.3c0,1.3,0.1,2.6,0.5,3.7
	c0.3,0.8,1.2,1.7,1.9,1.8c2.5,0.3,5.1,0.3,7.7,0.3c36.1,0,72.3,0,108.4,0c2.9,0,5.8,0,8.6,0.1c12.5,0.2,22.5,13.8,18.2,26.8
	c-2.7,8-8.2,12.8-16.5,14.2c-2.5,0.4-5.1,0.6-7.6,0.6c-46,0-92.1,0-138.1,0c-2.5,0-5.1-0.2-7.6-0.6c-9.3-1.7-16.2-8.4-17.8-17.8
	c-0.5-3.1-0.5-6.4-0.5-9.6c0-34.9,0-69.7,0-104.6C1151.5,806.7,1151.5,802.2,1151.5,797.7z"/>
<path class="st1" d="M916.4,1257.7c0-40.6,0-81.2,0-121.9c0-2.6,0.1-5.1,0-7.7c-0.3-8.4,6.6-18.4,17.2-20.3
	c10.3-1.9,20,3.7,23.7,13.6c0.8,2.1,1.2,4.3,1.4,6.5c0.2,2.5,0.1,5.1,0.1,7.7c0,31,0,62.1,0,93.1c0,9.2-0.5,9.1,8.7,9.1
	c40.3,0,80.6,0,120.9,0c2.2,0,4.5-0.2,6.7-0.4c0.5-0.1,1.1-0.7,1.4-1.2c0.3-0.5,0.4-1.2,0.4-1.8c0.1-2.9,0.1-5.8,0.1-8.6
	c0-30.1,0-60.1,0-90.2c0-2.6,0-5.1,0-7.7c0-9.9,9.9-22.6,25.2-20c8.6,1.5,16.2,9.7,17,18.5c0.2,2.2,0.2,4.5,0.2,6.7
	c0,83.2,0,166.3,0,249.5c0,1.6,0,3.2,0,4.8c-0.4,10.9-8.1,19.3-18.9,20.9c-3.3,0.5-6.4-0.1-9.4-1.3c-8.6-3.4-13.2-9.7-14-18.9
	c-0.2-2.5-0.1-5.1-0.1-7.7c0-31,0-62.1,0-93.1c0-9.3,0.4-9-8.7-9c-40.3,0-80.6,0-120.9,0c-1.9,0-3.8,0.1-5.7,0.2
	c-1.3,0.1-2.5,1.2-2.6,2.3c-0.1,2.9-0.2,5.7-0.2,8.6c0,30.4,0,60.8,0,91.2c0,2.6,0.1,5.1-0.1,7.7c-0.7,10.9-9.8,19.8-20.8,20.1
	c-2.5,0.1-5.1-0.6-7.5-1.4c-8.1-2.8-13.6-10.2-14-18.8c-0.1-2.6,0-5.1,0-7.7C916.4,1339.6,916.4,1298.6,916.4,1257.7z"/>
<path class="st0" d="M1542.1,1868.5c-6.1-0.3-11.1-2-15.1-6.1c-1.6-1.6-3-3.3-4.5-5c-28.5-33.2-57.1-66.5-85.6-99.7
	c-1.5-1.7-2.9-3.4-4.4-5.1c-2.1-2.3-2.9-2.3-5.3,0.4c-1.1,1.2-2.1,2.4-3.2,3.6c-28.3,33-56.6,66-84.9,99c-2.1,2.4-4.1,4.9-6.4,7.1
	c-7.6,7.2-20.3,8-28.8,0.2c-7-6.5-9.3-16.5-3.7-26.2c1.6-2.7,3.8-5.1,5.9-7.5c13.8-15.9,27.7-31.8,41.6-47.7
	c16.2-18.6,32.3-37.1,48.5-55.7c1.7-1.9,3.2-4,4.8-6c0.5-0.6,0.6-1.1,0.1-1.7c-1.4-1.8-2.6-3.6-4.1-5.3
	c-11.3-13.1-22.6-26.1-34-39.1c-18.7-21.5-37.4-42.9-56-64.4c-1.9-2.2-3.9-4.3-5.5-6.6c-5-7.2-5.4-14.9-1.4-22.7
	c3.8-7.5,12.4-11.8,20.8-10.7c5.3,0.7,9.8,2.8,13.3,6.8c1.9,2.2,3.8,4.3,5.7,6.5c28.3,33,56.6,66,84.9,99c1.2,1.5,2.6,2.9,3.9,4.3
	c0.8,0.8,1.8,0.9,2.5,0.2c1.3-1.4,2.7-2.8,3.9-4.2c28.5-33.2,57.1-66.5,85.6-99.7c2.1-2.4,4.1-4.9,6.4-7.2
	c10.2-10.5,31.2-6.7,35,9.9c1.5,6.4,0.3,12-3.1,17.3c-1.4,2.1-3.2,4-4.8,5.9c-27.7,31.8-55.4,63.7-83.1,95.5
	c-3.8,4.3-7.5,8.7-11.2,13.1c-1.2,1.4-1.2,2.6,0.2,4.2c4.1,4.9,8.3,9.7,12.5,14.5c27.3,31.3,54.6,62.7,81.9,94
	c1.9,2.2,3.8,4.3,5.3,6.8c7.1,11.7,2.1,24.3-7.8,29.7C1548.6,1867.7,1545.2,1868.3,1542.1,1868.5z"/>
<path class="st1" d="M622.8,1259.6c0-40,0-79.9,0-119.9c0-2.9,0-5.8,0.1-8.6c0.2-8.8,8.5-18.7,19.1-19.6c1.9-0.2,3.8-0.1,5.7-0.1
	c32.6,0,65.2,0.1,97.8,0c16,0,31.1,3.6,45.1,11.2c27.9,15.1,44.5,38.6,50.7,69.6c8.9,57.7-30,102.2-75.3,111.6
	c-6.9,1.4-13.9,2-20.9,2c-22.1,0-44.1-0.1-66.2,0c-15.9,0.1-13.7-2-13.8,13.6c-0.1,20.5,0,40.9,0,61.4c0,2.2,0.1,4.5,0,6.7
	c-0.5,11.1-8.9,20.1-19.9,20.9c-5.7,0.4-10.7-1.5-15-5.2c-4.6-3.9-7.2-8.9-7.4-15c-0.1-2.6,0-5.1,0-7.7
	C622.8,1340.2,622.8,1299.9,622.8,1259.6z M665.2,1208.7c0,16,0,32,0,47.9c0,1.9,0.2,3.8,0.4,5.7c0.1,1.1,1,1.7,1.9,1.8
	c1.6,0.3,3.2,0.3,4.8,0.3c23.3,0,46.7,0,70,0c4.2,0,8.3-0.4,12.4-1.2c18.2-3.2,31.6-13.1,39.9-29.7c4.7-9.4,6-19.4,5.4-29.8
	c-1.2-21.4-15.6-41.4-37.7-48.3c-6.2-1.9-12.5-2.5-18.9-2.5c-23.6,0-47.3,0-70.9,0c-1.3,0-2.6,0-3.8,0.1c-1.7,0.1-3.1,1.3-3.2,2.9
	c-0.1,2.6-0.2,5.1-0.2,7.7C665.2,1178.7,665.2,1193.7,665.2,1208.7z"/>
<path class="st1" d="M1356.4,1339.9c0,13.7,0,27.5,0,41.2c0,2.6,0.1,5.1-0.1,7.7c-0.7,11-9.9,19.8-21,19.6
	c-10.8-0.1-20.1-7.7-21.2-19.4c-0.3-2.5-0.1-5.1-0.1-7.7c0-27.5,0-55,0-82.4c0-1.9-0.1-3.8,0-5.7c0.4-4.7-0.9-8.6-3.7-12.5
	c-7.6-10.7-14.8-21.6-22.2-32.4c-23.2-34-46.4-68.1-69.7-102.1c-1.4-2.1-3-4.2-4.2-6.4c-4.3-7.7-4.2-15.4,0.8-22.6
	c4.9-7.1,12-10.4,20.8-9.1c4.9,0.7,9.1,3.1,12.2,6.9c2,2.5,3.7,5.2,5.5,7.8c24.4,36.3,48.7,72.7,73.1,109.1c2.1,3.2,4.3,6.3,6.5,9.5
	c1.1,1.5,2.9,1.6,3.9,0.1c1.8-2.6,3.7-5.2,5.5-7.9c24.9-37.1,49.8-74.3,74.8-111.4c1.4-2.1,2.8-4.3,4.4-6.3
	c10.1-12.8,28.8-9.7,35.5,4.6c3.1,6.5,2.7,13-1,19.3c-1.3,2.2-2.8,4.3-4.2,6.4c-30.1,44.1-60.1,88.1-90.2,132.2
	c-6.5,9.6-5.5,6.3-5.5,17.6C1356.3,1310.5,1356.4,1325.2,1356.4,1339.9z"/>
<path class="st1" d="M1869.8,1258.4c0,40.6,0,81.2,0,121.8c0,2.9,0.2,5.8-0.2,8.6c-1.2,9-6,15.2-14.6,18.4
	c-10.9,4.1-24.2-3.1-27-14.7c-0.5-2.2-0.7-4.4-0.9-6.6c-0.1-2.2,0-4.5,0-6.7c0-80.9,0-161.7,0-242.6c0-3.2-0.1-6.4,0.2-9.6
	c0.6-6.4,3.5-11.6,8.7-15.4c11.7-8.7,28.3-3.1,32.6,10.8c0.8,2.4,0.9,5,1.2,7.5c0.2,2.2,0,4.5,0,6.7
	C1869.8,1177.2,1869.8,1217.8,1869.8,1258.4z"/>
<path class="st1" d="M1024.3,797c0,40.6,0,81.1,0,121.7c0,2.6-0.1,5.1,0,7.7c0.4,7.8-5.3,16.8-14.2,19.6c-9.3,2.9-17.7,0.5-23.9-7.5
	c-2.6-3.4-4.1-7.2-4.2-11.5c-0.1-2.6,0-5.1,0-7.7c0-81.8,0-163.6,0-245.3c0-2.2,0-4.5,0-6.7c0.2-7.6,3.8-13.5,10-17.6
	c8.3-5.4,21.3-4.3,28.2,5.4c2.5,3.4,4,7.2,4,11.6c0,2.9,0,5.7,0,8.6C1024.3,715.9,1024.3,756.5,1024.3,797z"/>
</svg>
